<?xml version="1.0" encoding="utf-8"?>
<!-- Generator: Adobe Illustrator 23.0.1, SVG Export Plug-In . SVG Version: 6.00 Build 0)  -->
<svg version="1.1" id="Layer_2" xmlns="http://www.w3.org/2000/svg" xmlns:xlink="http://www.w3.org/1999/xlink" x="0px" y="0px"
	 viewBox="0 0 820 312" style="enable-background:new 0 0 820 312;" xml:space="preserve">
<style type="text/css">
	.st0{fill:none;stroke:#000000;stroke-width:2;stroke-miterlimit:10;}
</style>
<g>
	<path class="st0" d="M113.63,64.37c1.72-3.56,2.89-5.35,3.5-5.35c0.25,0,0.61,0.25,1.11,0.74c0.37,0.37,0.55,1.11,0.55,2.21
		c0,3.44-2.77,16.84-8.3,40.19l-9.77,40.56l3.5,3.5c2.21,2.21,3.32,3.69,3.32,4.43c0,1.23-0.68,3.32-2.03,6.27
		c-1.35,2.95-2.34,4.42-2.95,4.42c-1.6,0.12-3.07,1.94-4.42,5.44c-1.35,3.5-3.81,12.26-7.37,26.27c-5.04,19.29-7.81,29.5-8.3,30.61
		h-0.18c-0.86,0-2.83-1.05-5.9-3.13c-3.81-2.34-6.08-4.86-6.82-7.56c-0.74-2.58-1.11-4.61-1.11-6.08c0-1.47,0.37-2.95,1.11-4.42
		c0.49-0.98,2.27-8.36,5.35-22.12c3.07-13.76,4.61-21.32,4.61-22.68c0-0.61-5.29-0.92-15.86-0.92H47.44l-6.82,24.89
		c-4.67,16.59-7.19,25.01-7.56,25.26c-0.62,0.25-2.83,1.35-6.64,3.32c-2.58,1.35-4.27,2.58-5.07,3.69c-0.8,1.11-1.88,3.5-3.23,7.19
		c-1.23,3.32-2.71,6.48-4.42,9.5c-1.72,3.01-2.95,4.52-3.69,4.52l-0.18-0.18c-0.12-0.12,2.64-14.01,8.3-41.67
		c5.65-27.66,8.6-41.48,8.85-41.48c0.12,0,0.31-0.74,0.55-2.21c0.74-6.14,1.54-9.77,2.4-10.88c0.86-1.11,3.44-1.9,7.74-2.4
		c0.86-0.12,1.26-0.21,1.2-0.28c-0.06-0.06-0.89-0.15-2.49-0.28h-0.18h-0.18h-0.18h-0.18c-3.32-0.12-4.98-0.67-4.98-1.66
		c0-1.11,0.4-1.81,1.2-2.12c0.8-0.31,2.49-0.52,5.07-0.65c3.81-0.12,5.72-0.55,5.72-1.29c0-0.74-1.84-1.11-5.53-1.11
		c-3.44,0-5.16-0.43-5.16-1.29c0-0.49,0.06-0.92,0.18-1.29c3.32-11.8,5.16-22.68,5.53-32.63c0.25-4.18,0.8-8.79,1.66-13.83
		c0.86-5.04,1.66-7.86,2.4-8.48c0.25-0.25,3.38-0.95,9.4-2.12c6.02-1.17,9.59-1.75,10.69-1.75c1.35,0,2.03,1.6,2.03,4.79
		c0,5.16-2.15,18.07-6.45,38.72l-6.64,31.9c2.46,0,8.54-0.18,18.25-0.55l17.88-0.55l7.93-31.34c3.93-15.24,6.42-24.46,7.47-27.66
		c1.04-3.19,2.55-5.59,4.52-7.19c2.7-2.21,4.06-3.56,4.06-4.06C110.86,71.19,111.79,68.79,113.63,64.37z M44.68,143.65
		c0.12-0.49-0.18-0.83-0.92-1.01c-0.74-0.18-1.97-0.28-3.69-0.28c-2.09,0-3.41,0.09-3.96,0.28c-0.55,0.18-0.71,0.65-0.46,1.38
		c0.37,0.99,1.72,1.48,4.06,1.48C42.65,145.49,44.31,144.88,44.68,143.65z M50.02,130c-1.23-0.61-2.46-0.92-3.69-0.92
		c-0.99,0-1.66,0.31-2.03,0.92c-0.25,0.49,0.12,0.8,1.11,0.92c0.74,0.12,1.6,0.12,2.58,0c2.09,0,3.13-0.12,3.13-0.37
		C51.13,130.44,50.76,130.25,50.02,130z M47.99,150.84c0.86,0.49,1.6,0.49,2.21,0c0.24-0.37,0.06-0.55-0.55-0.55
		c-0.25,0-0.55,0-0.92,0c-0.99,0-1.35,0.12-1.11,0.37L47.99,150.84z"/>
	<path class="st0" d="M151.61,162.27l6.64-9.4l23.05,0.55c16.1,0.49,26.92,0.92,32.45,1.29l9.22,0.74l-0.55,3.13
		c-0.62,2.83-1.11,5.84-1.48,9.03c-0.49,4.18-1.54,6.95-3.13,8.3c-1.72,1.35-4.55,7.99-8.48,19.91l-5.72,17.7l-5.16,0.74
		c-3.57,0.49-5.35,0.49-5.35,0c0-0.62,0.77-4.52,2.3-11.71c1.54-7.19,2.3-11.21,2.3-12.08c0-0.25-0.49-0.37-1.48-0.37
		c-2.34,0-6.15,0.31-11.43,0.92c-8.24,0.99-16.04,1.66-23.42,2.03c-5.29,0.25-8.6,0.52-9.96,0.83c-1.35,0.31-2.34,1.08-2.95,2.3
		c-0.62,1.23-1.38,2-2.3,2.3c-0.92,0.31-2.86,0.46-5.81,0.46c-4.67,0-7.44,0.31-8.3,0.92c-0.49,0.37-0.74,0.68-0.74,0.92
		c0,0.74,1.84,1.11,5.53,1.11c2.09,0,3.81-0.06,5.16-0.18c5.28-0.61,8.05-1.6,8.3-2.95c0.49-1.35,1.41-2.09,2.77-2.21
		c0.61,0.25,0.98,0.55,1.11,0.92c0,0.37-2.46,5.16-7.37,14.38l-7.38,13.64l-6.27,2.4c-3.07,1.11-5.1,1.66-6.08,1.66
		c-0.74,0-1.35-0.18-1.84-0.55c-0.12-0.12-0.62-0.52-1.47-1.2c-0.86-0.68-1.81-1.42-2.86-2.21c-1.05-0.8-2-1.57-2.86-2.3l-5.35-4.42
		l5.72-8.3c3.81-5.53,6.27-8.3,7.37-8.3c0.61,0,0.92-0.49,0.92-1.47c0-1.35,2.52-5.78,7.56-13.27l8.11-11.62l5.53-0.55
		c3.56-0.49,5.59-1.17,6.08-2.03c0.24-0.61-0.25-0.92-1.48-0.92l-2.58,0.18c-3.07,0.49-4.61,0.49-4.61,0
		C145.34,171.86,147.43,168.42,151.61,162.27z M151.98,182.55c0-0.25-0.37-0.37-1.11-0.37c-0.74,0-1.11,0.37-1.11,1.11
		c0,0.99,0.55,0.99,1.66,0C151.79,183.04,151.98,182.8,151.98,182.55z M170.05,184.39c0-0.61-0.46-1.07-1.38-1.38
		c-0.92-0.31-1.88-0.34-2.86-0.09c-1.72,0.62-2.03,1.29-0.92,2.03c0.49,0.37,1.23,0.55,2.21,0.55
		C169.06,185.5,170.05,185.13,170.05,184.39z M203.42,172.04l1.11-5.9c0-0.24-0.43-0.37-1.29-0.37c-1.47,0-3.26,0.28-5.35,0.83
		c-2.09,0.55-3.26,1.08-3.5,1.57c-0.62,1.11-4.79,1.66-12.54,1.66h-11.8l-1.66,3.32l-1.84,3.32h6.08c3.19,0,9.09,0.25,17.7,0.74
		l11.8,0.74L203.42,172.04z"/>
	<path class="st0" d="M250.62,169.83c4.06-7.25,6.21-10.88,6.45-10.88c0.37,0,0.43,1.23,0.18,3.69c0,0.25-0.03,0.55-0.09,0.92
		c-0.06,0.37-0.09,0.62-0.09,0.74c0,0.86,0.18,1.41,0.55,1.66c0.37,0.25,1.17,0.49,2.4,0.74c1.84,0.25,3.01,0.99,3.5,2.21
		c6.51,22.49,9.77,34.23,9.77,35.21c0,0.37-0.18,0.68-0.55,0.92c-0.37,0.25-1.11,0.43-2.21,0.55c-1.11,0.12-2.61,0.21-4.52,0.28
		c-1.91,0.06-4.52,0.09-7.84,0.09c-10.08,0-15.3,0.37-15.67,1.11c-0.25,0.37,0.12,0.67,1.11,0.92c0.86,0.12,1.96,0.18,3.32,0.18
		c3.32,0,4.98,0.25,4.98,0.74c0,0.61-2.34,4.61-7.01,11.98l-7.01,11.25l-6.08,1.29c-5.9,1.35-10.02,2.03-12.35,2.03
		c-1.97,0-2.95-0.55-2.95-1.66c0-2.09,1.04-4.92,3.13-8.48c1.6-2.95,2.86-4.92,3.78-5.9c0.92-0.98,2.24-1.72,3.96-2.21h0.18
		l0.37-0.18l2.21-0.74c-0.12,0-0.74-0.06-1.84-0.18h-3.13l1.84-4.06c0.86-1.84,1.66-2.95,2.4-3.32c0.74-0.37,2.58-0.55,5.53-0.55
		c3.93,0,5.9-0.43,5.9-1.29c0-0.62-0.25-0.8-0.74-0.55c-0.49,0.37-2.21,0.31-5.16-0.18l-4.06-0.74l6.82-12.35
		c1.35-2.46,3.6-6.51,6.73-12.17C247.57,175.24,249.63,171.55,250.62,169.83z M286.2,185.5l11.06-19.73h9.22
		c6.39,0,9.59,0.25,9.59,0.74c0,0.86-5.9,12.08-17.7,33.65c-11.8,21.57-18.32,33.09-19.54,34.57c-0.99,0.98-3.63,1.48-7.93,1.48
		c-3.2,0-5.16-0.22-5.9-0.65c-0.74-0.43-1.84-1.81-3.32-4.15c-1.97-3.57-3.13-7.01-3.5-10.32c-0.25-2.09-0.74-5.16-1.48-9.22
		l-0.55-3.69h7.19c9.59,0,15.12-1.23,16.59-3.69c0.74-1.23,1.04-1.87,0.92-1.94c-0.12-0.06-0.8,0.46-2.03,1.57
		c-1.72,1.6-2.71,2.09-2.95,1.48C275.87,204.24,279.31,197.55,286.2,185.5z M287.12,200.43c0.37,0,0.55-0.18,0.55-0.55
		c0-0.37-0.18-0.55-0.55-0.55c-0.37,0-0.55,0.18-0.55,0.55C286.57,200.25,286.75,200.43,287.12,200.43z"/>
	<path class="st0" d="M412.31,128.34c2.46-3.69,4.12-5.53,4.98-5.53c0.12,0,0.18,0.18,0.18,0.55c0,1.6-1.42,4.98-4.24,10.14
		c-2.71,4.67-4.06,7.62-4.06,8.85c0,0.74,0.37,1.72,1.11,2.95l1.84,3.13l-21.02,24.71c-8.36,9.71-18.75,22-31.16,36.87
		c-6.76,8.11-13.21,14.26-19.36,18.44l-9.22,6.27l-10.51-4.06c-0.86-0.37-2-0.8-3.41-1.29c-1.41-0.49-2.46-0.89-3.13-1.2
		c-0.68-0.31-1.45-0.65-2.3-1.01c-0.86-0.37-1.45-0.71-1.75-1.01c-0.31-0.31-0.46-0.58-0.46-0.83c0-3.69,0.74-9.9,2.21-18.62
		l2.95-18.62c3.07-3.93,6.7-8.17,10.88-12.72h46.46l12.35-15.3c7.62-9.59,13.46-16.22,17.52-19.91
		C405.12,137.56,408.5,133.63,412.31,128.34z M352.02,189.92c-3.2-0.37-7.31-0.67-12.35-0.92h-2.77c-1.6,0-2.61,0.34-3.04,1.01
		c-0.43,0.68-1.08,2.61-1.94,5.81c-0.12,0.37-0.31,1.41-0.55,3.13c-0.12,1.48-1.11,2.21-2.95,2.21s-2.77,0.37-2.77,1.11
		c0,0.74,0.74,1.11,2.21,1.11s2.21,0.12,2.21,0.37c0,0.37-0.55,2.52-1.66,6.45c-0.99,3.69-1.48,6.02-1.48,7.01
		c0,0.61,0.18,0.92,0.55,0.92c0.61,0,2.46-1.54,5.53-4.61c5.28-5.41,9.71-8.11,13.27-8.11h0.55c2.33,0.25,3.5-0.06,3.5-0.92
		c0-0.74-0.74-1.11-2.21-1.11c-1.35,0-2.03-0.24-2.03-0.74c0-0.86,2.03-3.07,6.08-6.64l6.45-5.53L352.02,189.92z"/>
	<path class="st0" d="M510.02,162.27c0.98-0.61,3.2-0.92,6.64-0.92h4.79l-0.74,4.61c0,0.37-0.43,2.58-1.29,6.64
		c-0.12,0.49-2.98,1.81-8.57,3.96c-5.6,2.15-13.52,4.95-23.79,8.39c-10.26,3.44-21.54,7.07-33.83,10.88
		c-0.86,0.25-1.63,0.71-2.3,1.38c-0.68,0.68-1.36,1.47-2.03,2.4c-0.68,0.92-1.2,1.57-1.57,1.94c-0.37,0.37-0.8,1.54-1.29,3.5
		c-0.25,0.98-2.34,5.78-6.27,14.38c-2.83,5.78-4.79,9.37-5.9,10.79c-1.11,1.41-3.38,3.1-6.82,5.07c-3.2,1.84-5.32,3.32-6.36,4.42
		c-1.04,1.11-2.12,3.07-3.23,5.9c-0.86,2.09-1.88,3.84-3.04,5.25c-1.17,1.41-2.06,2.12-2.67,2.12c-0.37,0-0.55-0.12-0.55-0.37
		c0-0.62,4.12-9.47,12.35-26.55l12.54-26.18l-3.32-3.13c-2.21-2.21-3.2-3.44-2.95-3.69c0.12-0.12,0.95-0.28,2.49-0.46
		s3.01-0.43,4.43-0.74c1.41-0.31,2.12-0.71,2.12-1.2c0-0.98,0.25-1.47,0.74-1.47c0.74,0,3.2-3.87,7.38-11.62l6.08-11.62l7.01-0.74
		c4.18-0.37,13.4-0.8,27.66-1.29C501.48,163.44,508.92,162.89,510.02,162.27z M441.07,191.03c0.37,0.37,0.8,0.43,1.29,0.18
		c0.37-0.37,0.24-0.67-0.37-0.92C441.37,190.42,441.07,190.66,441.07,191.03z M495.46,172.78c0-0.12-0.25-0.18-0.74-0.18
		c-0.49,0-1.35,0.06-2.58,0.18c-1.23,0.12-3.35,0.31-6.36,0.55c-3.01,0.25-6.06,0.49-9.13,0.74l-13.64,1.11l-2.4,4.24
		c-1.47,2.71-2.03,4.36-1.66,4.98c0.74,0,7.01-1.81,18.8-5.44C489.56,175.33,495.46,173.27,495.46,172.78z"/>
	<path class="st0" d="M581,173.52c10.57-17.08,16.35-25.63,17.33-25.63c0.98,0,1.47,0.18,1.47,0.55c0,0.25-0.86,1.97-2.58,5.16
		c-1.6,2.83-2.4,6.15-2.4,9.96c0,2.58,0.37,5.23,1.11,7.93c0,0.12,0.03,0.28,0.09,0.46c0.06,0.18,0.09,0.34,0.09,0.46
		c0,2.09-4.67,11.49-14.01,28.21c-11.31,20.4-16.96,30.67-16.96,30.79c-1.47,3.2-2.52,4.67-3.13,4.42
		c-8.36-3.93-12.54-6.21-12.54-6.82l0.92-2.58c0.49-1.84,1.01-3.6,1.57-5.25c0.55-1.66,0.77-2.49,0.64-2.49
		c-0.37,0-4.67,2.89-12.91,8.67l-12.54,8.85l-5.9-4.24c-0.86-0.62-1.84-1.29-2.95-2.03c-1.11-0.74-1.97-1.29-2.58-1.66l-0.74-0.55
		c0-0.49,2.03-5.71,6.08-15.67c3.2-7.25,5.32-11.68,6.36-13.28c1.04-1.6,2.92-3.13,5.62-4.61c3.69-1.84,6.21-2.76,7.56-2.76
		c1.47,0,2.21,1.17,2.21,3.5c0,3.07-1.11,7.01-3.32,11.8c-2.09,4.91-3.13,7.68-3.13,8.3c0,0.86,4.85-1.6,14.57-7.37l14.2-8.67
		L581,173.52z"/>
	<path class="st0" d="M627.46,169.83c4.06-7.25,6.21-10.88,6.45-10.88c0.37,0,0.43,1.23,0.18,3.69c0,0.25-0.03,0.55-0.09,0.92
		c-0.06,0.37-0.09,0.62-0.09,0.74c0,0.86,0.18,1.41,0.55,1.66c0.37,0.25,1.17,0.49,2.4,0.74c1.84,0.25,3.01,0.99,3.5,2.21
		c6.51,22.49,9.77,34.23,9.77,35.21c0,0.37-0.18,0.68-0.55,0.92c-0.37,0.25-1.11,0.43-2.21,0.55c-1.11,0.12-2.61,0.21-4.52,0.28
		c-1.91,0.06-4.52,0.09-7.84,0.09c-10.08,0-15.3,0.37-15.67,1.11c-0.25,0.37,0.12,0.67,1.11,0.92c0.86,0.12,1.96,0.18,3.32,0.18
		c3.32,0,4.98,0.25,4.98,0.74c0,0.61-2.34,4.61-7.01,11.98l-7.01,11.25l-6.08,1.29c-5.9,1.35-10.02,2.03-12.35,2.03
		c-1.97,0-2.95-0.55-2.95-1.66c0-2.09,1.04-4.92,3.13-8.48c1.6-2.95,2.86-4.92,3.78-5.9c0.92-0.98,2.24-1.72,3.96-2.21h0.18
		l0.37-0.18l2.21-0.74c-0.12,0-0.74-0.06-1.84-0.18h-3.13l1.84-4.06c0.86-1.84,1.66-2.95,2.4-3.32c0.74-0.37,2.58-0.55,5.53-0.55
		c3.93,0,5.9-0.43,5.9-1.29c0-0.62-0.25-0.8-0.74-0.55c-0.49,0.37-2.21,0.31-5.16-0.18l-4.06-0.74l6.82-12.35
		c1.35-2.46,3.59-6.51,6.73-12.17C624.42,175.24,626.48,171.55,627.46,169.83z M663.05,185.5l11.06-19.73h9.22
		c6.39,0,9.59,0.25,9.59,0.74c0,0.86-5.9,12.08-17.7,33.65c-11.8,21.57-18.32,33.09-19.54,34.57c-0.99,0.98-3.63,1.48-7.93,1.48
		c-3.2,0-5.16-0.22-5.9-0.65c-0.74-0.43-1.84-1.81-3.32-4.15c-1.97-3.57-3.13-7.01-3.5-10.32c-0.25-2.09-0.74-5.16-1.47-9.22
		l-0.55-3.69h7.19c9.59,0,15.12-1.23,16.59-3.69c0.74-1.23,1.04-1.87,0.92-1.94c-0.12-0.06-0.8,0.46-2.03,1.57
		c-1.72,1.6-2.71,2.09-2.95,1.48C652.72,204.24,656.16,197.55,663.05,185.5z M663.97,200.43c0.37,0,0.55-0.18,0.55-0.55
		c0-0.37-0.18-0.55-0.55-0.55c-0.37,0-0.55,0.18-0.55,0.55C663.42,200.25,663.6,200.43,663.97,200.43z"/>
	<path class="st0" d="M751.91,157.66c23.84-11.68,36.01-17.52,36.5-17.52h0.18c0.25,0,0.37,0.06,0.37,0.18
		c0,0.74-2.09,3.2-6.27,7.38c-4.55,4.55-9.71,8.3-15.49,11.25c-6.15,2.95-9.47,4.79-9.96,5.53c-0.37,0.62-5.59,3.63-15.67,9.03
		c-9.96,5.29-14.93,8.11-14.93,8.48c0,0.12,2.58,1.78,7.74,4.98c6.02,3.57,9.03,5.84,9.03,6.82c0,0.25-0.31,0.49-0.92,0.74
		c-2.34,0.74-1.84,1.84,1.47,3.32c1.23,0.49,2,1.14,2.3,1.94c0.31,0.8,0.46,2.12,0.46,3.96c0,2.95,0.37,4.42,1.11,4.42
		c0.49,0,8.91,4.3,25.26,12.91c16.1,8.6,24.71,12.91,25.81,12.91c1.48,0,3.56,0.55,6.27,1.66c2.58,1.11,4.12,2.77,4.61,4.98
		c0.12,0.61,0.21,1.23,0.28,1.84c0.06,0.61,0.09,1.11,0.09,1.47v0.55c-0.74,0-17.82-9.03-51.25-27.1
		c-33.43-18.07-50.4-27.1-50.89-27.1c-0.86,0-3.63,3.93-8.3,11.8l-6.82,11.62c-2.95-1.97-5.1-3.44-6.45-4.42l1.84-4.61
		c0.74-1.96,1.11-3.56,1.11-4.79c0-0.98-0.18-1.9-0.55-2.77c-0.25-0.74-0.37-1.35-0.37-1.84c0-2.09,2.83-8.23,8.48-18.44l9.22-16.96
		l7.01-0.18h2.03c3.93,0,5.9,0.49,5.9,1.47c0,1.72-0.8,3.94-2.4,6.64c-0.49,0.98-0.89,1.75-1.2,2.3c-0.31,0.55-0.68,1.26-1.11,2.12
		c-0.43,0.86-0.65,1.38-0.65,1.57c0,0.18,0,0.4,0,0.65C717.25,174.44,729.3,168.85,751.91,157.66z M710.43,186.97
		c0.37,0,0.55-0.18,0.55-0.55s-0.18-0.55-0.55-0.55c-0.37,0-0.55,0.18-0.55,0.55S710.06,186.97,710.43,186.97z"/>
</g>
</svg>
